# xmcd CD database file
#
# Track frame offsets:
#	150
#	23100
#	52432
#
# Disc length: 1001 seconds
#
# Revision: 0
# Processed by: cddbd v1.5PL3 Copyright (c) Steve Scherf et al.
# Submitted via: CDex 1.51
#
DISCID=2503e703
DTITLE=FEEL - EVERLASTING
DYEAR=1999
DGENRE=JPop
TTITLE0=EVERLASTING
TTITLE1=残像に接吻を
TTITLE2=EVERLASTING  off vocal version
EXTD=YEAR: 1999
EXTT0=
EXTT1=
EXTT2=
PLAYORDER=
